<?xml version="1.0" encoding="UTF-8" standalone="no"?>
<svg width="315px" height="315px" viewBox="0 0 315 315" fill="none" xmlns="http://www.w3.org/2000/svg">
    <rect width="315" height="315" fill="#5E62C6"/>
    <g transform="translate(315 315)">
        <path d="M55.494 6.972C36.766 6.972 33.735 5.042 33.735 1.21V-2.215C33.735 -6.047 36.775 -8.977 55.494 -8.977C78.698 -8.977 97.5 -29.671 97.5 -52.741C97.5 -75.8106 78.693 -94.5 55.494 -94.5C32.295 -94.5 13.489 -75.8061 13.489 -52.736C13.489 -13.917 11.097 -11.498 1.655 -11.498H-2.664C-11.106 -11.498 -13.484 -14.908 -13.484 -52.736C-13.489 -75.8061 -31.291 -94.5 -54.494 -94.5C-77.698 -94.5 -96.5 -75.8061 -96.5 -52.736C-96.5 -29.666 -77.698 -11.972 -54.494 -11.972C-35.766 -11.972 -32.749 -10.042 -32.749 -6.21V-2.785C-32.749 1.047 -35.771 2.977 -54.494 2.977C-77.698 2.972 -96.5 21.666 -96.5 44.736C-96.5 67.806 -77.6934 86.5 -54.494 86.5C-31.295 86.5 -12.489 67.806 -12.489 44.736C-12.489 5.917 -10.097 3.498 -0.669 3.498H3.65C13.093 3.498 15.484 6.908 15.484 44.736C15.484 67.806 34.286 86.5 57.49 86.5C80.693 86.5 99.495 67.806 99.495 44.736C99.495 21.666 80.693 6.972 55.494 6.972Z" fill="white" transform="translate(-157.5 -157.5)">
            <animate attributeName="opacity" values="0.4;1;0.4" dur="3s" repeatCount="indefinite"/>
        </path>
        <animateTransform attributeName="transform" type="scale" values="1;1.02;1" dur="3s" repeatCount="indefinite" additive="sum"/>
    </g>
</svg>
